<svg width="2264" height="2500" version="1.1" viewBox="0 0 500 552" xmlns="http://www.w3.org/2000/svg"><path d="M401.34 408.19h95.805a2.85 2.85 0 0 0 2.85-2.843v-23.84a2.854 2.854 0 0 0-2.85-2.843h-47.088a2.85 2.85 0 0 0-2.85 2.843v4.3a2.854 2.854 0 0 0 2.85 2.844h30.924a.95.95 0 0 1 .952.945v4.616a.95.95 0 0 1-.952.945h-61.572a2.85 2.85 0 0 1-2.85-2.843v-17.688a2.854 2.854 0 0 1 2.85-2.843h77.743a2.85 2.85 0 0 0 2.85-2.843v-6.473a2.854 2.854 0 0 0-2.85-2.843h-95.805a2.85 2.85 0 0 0-2.85 2.843v42.873a2.854 2.854 0 0 0 2.85 2.843zm-26.82 0h12.37a2.85 2.85 0 0 0 2.85-2.843v-42.873a2.854 2.854 0 0 0-2.85-2.843h-13.886c-.578 0-1.07.145-1.556.46l-33.898 22.047c-.965.63-2.147.63-3.112 0L300.54 360.09a2.74 2.74 0 0 0-1.556-.46h-13.886a2.85 2.85 0 0 0-2.85 2.843v42.873a2.854 2.854 0 0 0 2.85 2.843h12.37a2.85 2.85 0 0 0 2.85-2.843v-25.842c0-.492.249-.92.682-1.162s.926-.23 1.353.04l26.243 16.4c.472.296.952.434 1.51.434h11.779a2.73 2.73 0 0 0 1.51-.434l26.243-16.4c.42-.263.913-.276 1.352-.04.434.243.683.663.683 1.162v25.842a2.854 2.854 0 0 0 2.85 2.843zm-103.85 0H258.3a2.85 2.85 0 0 1-2.85-2.843v-7.55a.95.95 0 0 0-.952-.946h-65.006c-.912 0-1.693.388-2.252 1.103l-6.795 8.765c-.742.959-1.792 1.471-3.007 1.471H160.46c-.519 0-.965-.276-1.195-.742a1.29 1.29 0 0 1 .145-1.398l35.119-45.316a2.76 2.76 0 0 1 2.252-1.103h73.883a2.85 2.85 0 0 1 2.85 2.843v42.873a2.854 2.854 0 0 1-2.85 2.842zm-15.219-24.798v-10.656a.95.95 0 0 0-.952-.945h-46.058c-.61 0-1.13.256-1.504.735l-8.207 10.59a.73.73 0 0 0-.078.794.75.75 0 0 0 .683.42h55.164a.95.95 0 0 0 .952-.945zM42.111 408.19H1.345c-.519 0-.965-.276-1.195-.742a1.29 1.29 0 0 1 .145-1.398l35.119-45.316a2.76 2.76 0 0 1 2.252-1.103h40.378c.59 0 1.103.315 1.365.847a1.47 1.47 0 0 1-.164 1.595L44.362 407.08a2.76 2.76 0 0 1-2.252 1.103zm29.631 0H52.439c-.519 0-.965-.276-1.195-.742a1.3 1.3 0 0 1 .138-1.398l35.119-45.316a2.76 2.76 0 0 1 2.252-1.103h18.915c.59 0 1.103.315 1.366.847a1.47 1.47 0 0 1-.165 1.595L73.986 407.08a2.76 2.76 0 0 1-2.252 1.103zm26.571 0h-14.91c-.519 0-.965-.276-1.195-.742a1.29 1.29 0 0 1 .145-1.398l35.119-45.316a2.76 2.76 0 0 1 2.252-1.103h14.523c.59 0 1.103.315 1.365.847a1.47 1.47 0 0 1-.164 1.595l-34.883 45.007a2.76 2.76 0 0 1-2.252 1.103zm24.01 0H111.91c-.519 0-.965-.276-1.195-.742a1.29 1.29 0 0 1 .145-1.398l35.119-45.316a2.76 2.76 0 0 1 2.252-1.103h10.026c.59 0 1.103.315 1.365.847a1.47 1.47 0 0 1-.164 1.595l-34.883 45.007a2.77 2.77 0 0 1-2.252 1.103zm22.993 0h-7.656c-.518 0-.965-.276-1.194-.742a1.29 1.29 0 0 1 .144-1.398l35.119-45.316a2.76 2.76 0 0 1 2.252-1.103h7.268c.591 0 1.103.315 1.366.847a1.47 1.47 0 0 1-.164 1.595l-34.883 45.007a2.76 2.76 0 0 1-2.252 1.103z"/><path d="M16.778 493.6c0-4.497-.026-14.661 0-15.245.033-.82.61-1.654 1.418-1.937.361-.125.768-.092 1.15-.092h6.466c4.498 0 8.962-.374 13.236-1.897 4.491-1.596 8.529-4.347 11.083-8.437 2.508-4.018 3.33-8.896 2.961-13.571-.275-3.493-1.32-6.92-3.296-9.835-4.202-6.192-11.693-8.831-18.896-9.33-.965-.066-1.97-.118-2.902-.098-2.869.006-5.738 0-8.607 0H7.488c-2.843 0-7.478-.132-7.478 3.952v56.484h16.775zm19.618-38.225c0 4.754-3.624 7.84-9.599 7.84H16.778v-13.329c0-1.438 1.175-2.62 2.607-2.62h7.314c6.073 0 9.697 2.745 9.697 7.938zm358.2 38.218 3.053-7.636c.473-1.208 1.49-2.475 2.784-2.705h21.66l4.248 10.334h17.99l-25.626-60.43H404.95c-2.036.23-2.843 1.307-3.572 2.77l-24.457 57.66h17.675zm15.908-40.575 6.763 17.182h-13.63zm66.936 2.935c-8.437-1.884-10.485-3.093-10.485-5.817v-.204c0-2.166 1.97-3.887 6.034-3.887 3.73 0 7.708.998 11.667 2.876 0 0 .873.427 1.254.637 1.149.512 2.468.945 4.123.597 1.169-.25 2.022-1.306 3.066-2.567l5.253-7.406c-6.56-5.272-14.576-8.036-24.923-8.036-14.517 0-23.452 8.122-23.452 19.355v.164c0 12.429 9.986 16.04 22.855 19.007 8.213 1.871 10.183 3.263 10.183 5.778v.15c0 2.627-2.403 4.137-6.894 4.137-5.292 0-10.406-1.418-15.147-4.17-1.372-.682-3.047-1.595-5.213-1.122-.893.197-1.576.801-2.305 1.661l-6.33 7.557c7.433 6.592 17.676 9.973 28.397 9.973 14.707 0 24.47-7.333 24.47-19.67v-.165c0-11.299-8.667-15.823-22.553-18.843M60.32 437.345V493.6h48.717v-14.267H76.93v-7.268c0-1.136 1.011-2.291 2.088-2.291h26.236v-13.197h-28.33v-6.868c0-1.077.919-2.285 1.963-2.285h30.143v-14.26H64.627c-2.311 0-4.32 1.911-4.314 4.183m56.136-.033v10.557h18.16v45.723h16.801V449.78c0-1.037.867-1.91 2.101-1.91h16.073v-14.708h-48.84c-2.331 0-4.295 2.016-4.301 4.15m236.35-.263v28.088l-24.916-31.974h-11.365c-2.39 0-4.314 1.957-4.314 4.327v56.11h16.624v-33.117L354.71 493.6h14.674v-60.436H357.06c-2.245 0-4.274 1.713-4.274 3.887m-82.142-5.076c-18.679 0-32.677 14.07-32.677 31.443v.132c0 17.405 13.821 31.305 32.526 31.305s32.736-14.116 32.736-31.436v-.19c0-17.334-13.899-31.247-32.585-31.247m15.416 31.561c0 8.713-6.106 16.151-15.416 16.151s-15.482-7.59-15.482-16.283v-.19c0-8.72 6.172-16.151 15.324-16.151s15.574 7.616 15.574 16.342zm-54.882-8.929v-.15c0-13.428-9.868-21.3-25.173-21.3h-23.702c-2.272 0-4.287 1.825-4.287 3.946v56.49h16.775v-15.258c0-.978.971-2.016 1.91-2.016h5.949l11.687 17.274h19.414l-13.965-20.268c7.025-3.46 11.39-9.763 11.39-18.725zm-16.762.762c0 4.753-3.624 7.84-9.599 7.84h-10.019v-13.329c0-1.438 1.175-2.62 2.607-2.62h7.314c6.073 0 9.697 2.745 9.697 7.938z" fill="#00b1a9"/><path d="M379.7 74.881a149.763 149.763 0 0 0-204.578-54.816 149.763 149.763 0 0 0-54.816 204.578 149.763 149.763 0 0 0 204.578 54.816A149.763 149.763 0 0 0 379.7 74.881m-264.48 74.881A134.78 134.78 0 0 1 245.783 15.049l-17.195 122.35-97.361 76.069a134.8 134.8 0 0 1-16.007-63.706m202.17 116.72a134.77 134.77 0 0 1-67.389 18.055 134.77 134.77 0 0 1-114.556-63.771l114.56-46.281 114.56 46.281a134.8 134.8 0 0 1-47.167 45.716zm51.382-53.024-97.361-76.069-17.195-122.35a134.78 134.78 0 0 1 130.563 134.713c0 22.251-5.508 44.134-16.007 63.706M319.17 521.59c0-1.727 1.392-3.119 3.19-3.119 1.8 0 3.192 1.392 3.192 3.119s-1.399 3.119-3.204 3.119-3.185-1.392-3.185-3.119zm3.19 2.62c1.498 0 2.673-1.156 2.673-2.627s-1.175-2.613-2.672-2.613-2.672 1.15-2.672 2.613 1.162 2.627 2.672 2.627m-1.017-4.472h1.392c.742 0 1.267.427 1.267 1.182 0 .519-.289.9-.728 1.064l.774 1.484h-1.044l-.67-1.392h-.459v1.392h-.965v-3.303c0-.25.184-.427.44-.427zm1.681 1.176c0-.27-.151-.434-.453-.434h-.703v.887h.749c.289 0 .407-.178.407-.453m138.3 30.569V522.14c0-2.042 1.536-3.572 3.624-3.572h9.015l4.878 20.445 1.07 6.165h1.49l1.07-6.165 4.833-20.445h12.691v32.913h-6.46v-26.61h-1.49l-1.491 6.815-4.74 19.795h-10.322l-4.786-19.795-1.49-6.815h-1.49l.045 6.815v19.795h-6.46zm-34.016-32.913h12.501l10.269 32.913h-7.156l-2.745-9.455h-9.619l-2.232-2.226h-.886l-3.395 11.68h-7.018l10.269-32.913zm11.247 17.845-1.858-6.441-1.628-5.89h-3.113l-1.628 5.89-1.858 6.44zm-51.264-17.845h18.456v5.889h-15.016v7.695h13.433v5.699h-10.269l-2.232-2.226h-.933v9.967h15.153v5.889h-22.218v-29.342c0-2.042 1.537-3.572 3.625-3.572zm-32.02 5.974h-9.665v-5.98h26.354v5.98h-9.664v26.932h-7.019v-26.932zm-46.038.933h-1.208l-5.903 4.635h-1.208v-6.44l6.087-5.102h5.672c2.095 0 3.579 1.53 3.579 3.571v29.342h-7.02zm-56.444-6.907h12.501l10.269 32.913h-7.157l-2.744-9.455h-9.619l-2.232-2.225h-.886l-3.395 11.68h-7.018l10.269-32.913zm11.247 17.845-1.858-6.441-1.628-5.89h-3.113l-1.628 5.89-1.858 6.44zm-52.932-17.845h7.065v26.932h14.549v5.981h-21.614zm-40.529 20.629v-20.63h7.019v20.348c0 4.635 2.836 7.137 6.598 7.137s6.598-2.502 6.598-7.137V518.57h7.065v20.629c0 6.027-3.86 12.796-13.663 12.796s-13.617-6.815-13.617-12.796m-51.914 12.284V522.14c0-2.042 1.536-3.572 3.624-3.572h9.015l4.878 20.445 1.07 6.165h1.49l1.07-6.165 4.833-20.445h12.691v32.913h-6.46v-26.61h-1.49l-1.491 6.815-4.74 19.795H132.83l-4.786-19.795-1.49-6.815h-1.49l.045 6.815v19.795h-6.46zM83.016 518.57h10.971c6.835 0 11.431 3.71 11.431 10.196 0 4.169-2.042 7.274-5.482 8.903v.925l2.882 1.484 3.762 11.404h-7.347l-4.228-12.704c-.276.046-.558.046-.886.046H86.45v12.652h-7.065v-29.342c0-2.042 1.537-3.571 3.625-3.571zm15.245 10.104c0-2.922-1.628-4.498-4.786-4.498h-7.019v9.225h7.439c3.02 0 4.366-1.76 4.366-4.727m-65.393 6.303c0-10.571 7.623-16.92 17.057-16.92s17.011 6.349 17.011 16.92c0 10.57-7.623 17.01-17.011 17.01s-17.057-6.348-17.057-17.01m17.011 11.22c5.81 0 9.855-4.03 9.855-11.22s-4.09-11.122-9.855-11.122-9.855 4.031-9.855 11.122 4.09 11.22 9.855 11.22M3.631 518.57h18.22v5.981H7.072v7.97h13.387v5.654H10.236l-2.232-2.226H7.07v15.528H.007v-29.342c0-2.042 1.536-3.572 3.624-3.572z"/></svg>